# xmcd
#
# Track frame offsets:
#	150
#	9833
#	22936
#	41155
#	50326
#	63962
#	80719
#	96981
#	111892
#	131229
#	147816
#	161691
#	173917
#	186813
#	198326
#	214293
#	235013
#	248412
#	262125
#	276873
#
# Disc length: 3860 seconds
# Revision: 4
# Processed by: cddbd v1.5.2PL0 Copyright (c) Steve Scherf et al.
# Submitted via: dBpowerAMP V12.0
#
DISCID=1b0f1214
DTITLE=Various Artist - 100 Hits Country - Disc 1
DYEAR=2007
DGENRE=Country
TTITLE0=Waylon Jennings - Good Ol' Boys
TTITLE1=Dolly Parton - Here You Come Again
TTITLE2=Billy Swan - I Can Help
TTITLE3=Frankie Laine - Rawhide
TTITLE4=Jimmy Dean - Big Bad John
TTITLE5=Tom T. Hall - Mr. Bojangles
TTITLE6=Charlie Daniels Band - The Devil Went Down To Georgia
TTITLE7=Brooks and Dunn - Boot Scootin' Boogie
TTITLE8=Alan Jackson - Gone Country
TTITLE9=Keith Whitley - When You Say Nothing At All
TTITLE10=Glen Campbell - Tennessee
TTITLE11=Curtis Day - The Cowboy Stomp
TTITLE12=Eddie Rabbitt - Every Which Way But Loose
TTITLE13=Travis Tritt - Here's A Quarter (Call Someone Who Cares)
TTITLE14=Linda Ronstadt - Desperado
TTITLE15=K.D. Lang - Constant Craving
TTITLE16=Tammy Wynette - D.i.v.o.r.c.e.
TTITLE17=John Anderson - Swingin'
TTITLE18=Eric Weissberg and Deliverance - Dueling Banjos
TTITLE19=Dwight Yoakam - Honky Tonk Man
EXTD=
EXTT0=
EXTT1=
EXTT2=
EXTT3=
EXTT4=
EXTT5=
EXTT6=
EXTT7=
EXTT8=
EXTT9=
EXTT10=
EXTT11=
EXTT12=
EXTT13=
EXTT14=
EXTT15=
EXTT16=
EXTT17=
EXTT18=
EXTT19=
PLAYORDER=
